<svg width="80" height="80" viewBox="0 0 80 80" fill="none" xmlns="http://www.w3.org/2000/svg">
<path d="M0 7.27273C0 3.25611 3.25611 0 7.27273 0H40C62.0914 0 80 17.9086 80 40C80 62.0914 62.0914 80 40 80C17.9086 80 0 62.0914 0 40V7.27273Z" fill="white"/>
<g clip-path="url(#clip0_176_1909)">
<path d="M48.8727 56.9078H31.1635C30.1784 56.9078 29.2336 56.5186 28.537 55.8259C27.8405 55.1331 27.4491 54.1935 27.4491 53.2137V42.2634C27.4491 41.8261 27.6238 41.4066 27.9348 41.0973C28.2458 40.788 28.6675 40.6143 29.1073 40.6143C29.5471 40.6143 29.9689 40.788 30.2798 41.0973C30.5908 41.4066 30.7655 41.8261 30.7655 42.2634V53.2137C30.7655 53.3187 30.8074 53.4194 30.8821 53.4936C30.9567 53.5678 31.0579 53.6095 31.1635 53.6095H48.9722C49.0778 53.6095 49.179 53.5678 49.2536 53.4936C49.3283 53.4194 49.3702 53.3187 49.3702 53.2137V42.2634C49.3702 41.8261 49.5449 41.4066 49.8559 41.0973C50.1668 40.788 50.5886 40.6143 51.0284 40.6143C51.4681 40.6143 51.8899 40.788 52.2009 41.0973C52.5118 41.4066 52.6865 41.8261 52.6865 42.2634V53.2137C52.6867 53.7073 52.5875 54.1959 52.3946 54.6506C52.2017 55.1054 51.9192 55.5171 51.5637 55.8615C51.2082 56.2058 50.7869 56.4758 50.3247 56.6555C49.8625 56.8353 49.3688 56.921 48.8727 56.9078Z" fill="#583EF2"/>
<path d="M39.8523 40.2185H40.0844C41.1223 40.2185 42.1177 40.6286 42.8516 41.3584C43.5854 42.0883 43.9977 43.0783 43.9977 44.1105V54.1703H35.939V44.1105C35.939 43.0783 36.3513 42.0883 37.0852 41.3584C37.8191 40.6286 38.8144 40.2185 39.8523 40.2185Z" fill="#583EF2"/>
<path d="M28.0461 20.2309C28.0048 20.1626 27.9465 20.1061 27.8768 20.0669C27.807 20.0276 27.7283 20.007 27.6481 20.007C27.568 20.007 27.4893 20.0276 27.4195 20.0669C27.3498 20.1061 27.2914 20.1626 27.2502 20.2309L26.9849 20.7587C26.7654 21.2367 26.4074 21.6387 25.9568 21.9131L25.0614 22.5068C24.9997 22.5454 24.9489 22.5989 24.9137 22.6624C24.8785 22.7258 24.86 22.7971 24.86 22.8696C24.86 22.942 24.8785 23.0133 24.9137 23.0768C24.9489 23.1402 24.9997 23.1938 25.0614 23.2324L25.9568 23.8261C26.4074 24.1005 26.7654 24.5024 26.9849 24.9805L27.2502 25.4752C27.2829 25.5534 27.3382 25.6201 27.409 25.6671C27.4798 25.714 27.563 25.7391 27.6481 25.7391C27.7332 25.7391 27.8165 25.714 27.8873 25.6671C27.9581 25.6201 28.0134 25.5534 28.0461 25.4752L28.2782 24.9805C28.5244 24.5203 28.8767 24.1247 29.3063 23.8261L30.2017 23.2983C30.2634 23.2597 30.3142 23.2062 30.3494 23.1427C30.3846 23.0793 30.4031 23.008 30.4031 22.9355C30.4031 22.8631 30.3846 22.7918 30.3494 22.7283C30.3142 22.6649 30.2634 22.6113 30.2017 22.5727L29.3063 21.9131C28.8767 21.6145 28.5244 21.2189 28.2782 20.7587L28.0461 20.2309Z" fill="#583EF2"/>
<path d="M54.9417 25.9369C54.9126 25.8738 54.8658 25.8203 54.8071 25.7827C54.7483 25.7452 54.6799 25.7253 54.61 25.7253C54.5402 25.7253 54.4718 25.7452 54.413 25.7827C54.3542 25.8203 54.3075 25.8738 54.2784 25.9369L54.0794 26.3657C53.8665 26.744 53.5721 27.0706 53.2172 27.3222L52.4876 27.784C52.4325 27.8159 52.3868 27.8617 52.3551 27.9167C52.3234 27.9716 52.3067 28.0339 52.3067 28.0973C52.3067 28.1607 52.3234 28.223 52.3551 28.278C52.3868 28.333 52.4325 28.3787 52.4876 28.4107L53.2172 28.8724C53.5794 29.1157 53.8756 29.4443 54.0794 29.8289L54.2784 30.2577C54.3075 30.3209 54.3542 30.3744 54.413 30.4119C54.4718 30.4494 54.5402 30.4694 54.61 30.4694C54.6799 30.4694 54.7483 30.4494 54.8071 30.4119C54.8658 30.3744 54.9126 30.3209 54.9417 30.2577L55.1406 29.8949C55.3223 29.5056 55.6094 29.1744 55.9697 28.9384L56.7325 28.4766C56.7807 28.4396 56.8197 28.3922 56.8465 28.3379C56.8734 28.2835 56.8873 28.2238 56.8873 28.1633C56.8873 28.1028 56.8734 28.043 56.8465 27.9887C56.8197 27.9344 56.7807 27.8869 56.7325 27.85L55.9697 27.3882C55.6158 27.145 55.3304 26.8157 55.1406 26.4317L54.9417 25.9369Z" fill="#583EF2"/>
<path d="M21.2144 39.0312C20.8581 39.0168 20.5132 38.9025 20.2195 38.7014L14.0843 34.1168C13.7376 33.8495 13.5115 33.4564 13.4555 33.0237C13.3996 32.591 13.5184 32.1538 13.7858 31.808C14.0549 31.4653 14.4469 31.2395 14.8797 31.178C15.3125 31.1165 15.7525 31.2241 16.1072 31.4782L22.143 36.0628C22.4897 36.3301 22.7158 36.7231 22.7717 37.1559C22.8277 37.5886 22.7089 38.0257 22.4415 38.3716C22.2959 38.562 22.1111 38.7193 21.8995 38.8331C21.6879 38.9468 21.4544 39.0144 21.2144 39.0312Z" fill="#F3A8A2"/>
<path d="M53.7478 39.0311C53.3566 39.0363 52.9778 38.895 52.6866 38.6353L41.1125 28.7735C40.8304 28.5342 40.4718 28.4027 40.101 28.4027C39.7302 28.4027 39.3716 28.5342 39.0895 28.7735L27.3828 38.6683C27.0486 38.9526 26.6145 39.0932 26.176 39.0592C25.7376 39.0252 25.3307 38.8193 25.0448 38.4869C24.7589 38.1545 24.6176 37.7228 24.6518 37.2867C24.686 36.8506 24.893 36.4459 25.2272 36.1616L36.9339 26.2668C37.8167 25.5165 38.9398 25.1042 40.101 25.1042C41.2622 25.1042 42.3853 25.5165 43.2681 26.2668L54.9417 36.1616C55.1982 36.3798 55.3818 36.6707 55.4677 36.9954C55.5536 37.3201 55.5378 37.6631 55.4224 37.9786C55.3071 38.2942 55.0976 38.5672 54.8221 38.7611C54.5465 38.9551 54.218 39.0608 53.8804 39.0641L53.7478 39.0311Z" fill="#F7658B"/>
<path d="M58.7886 39.0312C58.4406 39.0312 58.1014 38.9223 57.8191 38.7199C57.5368 38.5176 57.3256 38.232 57.2156 37.9036C57.1055 37.5752 57.1021 37.2208 57.2059 36.8904C57.3097 36.56 57.5153 36.2705 57.7937 36.0628L63.8295 31.4782C64.1843 31.2241 64.6242 31.1165 65.057 31.178C65.4898 31.2395 65.8819 31.4653 66.1509 31.808C66.4184 32.1538 66.5371 32.591 66.4812 33.0237C66.4252 33.4564 66.1992 33.8495 65.8525 34.1168L59.8167 38.7014C59.5112 38.9035 59.1554 39.0177 58.7886 39.0312Z" fill="#F3A8A2"/>
</g>
<defs>
<clipPath id="clip0_176_1909">
<rect width="54" height="37" fill="white" transform="translate(13 20)"/>
</clipPath>
</defs>
</svg>
